# xmcd
#
# Track frame offsets: 
#        150
#        12894
#        34375
#        50635
#        65560
#        78634
#        90147
#        102411
#        119746
#        135884
#        148870
#        171966
#        188981
#
# Disc length: 2751 seconds
#
# Revision: 1
# Processed by: cddbd v1.5.2PL0 Copyright (c) Steve Scherf et al.
# Submitted via: ExactAudioCopy v1.0b1
#
DISCID=b70abd0d
DTITLE=Geater Davis - The Lost Soul Man CD2
DYEAR=2006
DGENRE=Soul
TTITLE0=Two That Stick Together
TTITLE1=I'm Gonna Change
TTITLE2=I'm So In Love With You
TTITLE3=I've Got To Pay The Price
TTITLE4=Long Cold Winter
TTITLE5=Why Does It Hurt So Bad (version 1)
TTITLE6=Why Does It Hurt So Bad (version 2)
TTITLE7=Why Can't I Cry
TTITLE8=Will It Be Me Or Him (Part 1)
TTITLE9=Will It Be Me Or Him (Part 2)
TTITLE10=You Made Your Bed
TTITLE11=Your Heart Is So Cold (Part 1)
TTITLE12=Your Heart Is So Cold (Part 2)
EXTD=
EXTT0=
EXTT1=
EXTT2=
EXTT3=
EXTT4=
EXTT5=
EXTT6=
EXTT7=
EXTT8=
EXTT9=
EXTT10=
EXTT11=
EXTT12=
PLAYORDER=
